<svg height="464pt" viewBox="0 -28 464 464" width="464pt" xmlns="http://www.w3.org/2000/svg"><path d="m344 264.34375c-4.417969 0-8-3.582031-8-8v-96c0-4.417969 3.582031-8 8-8s8 3.582031 8 8v96c0 4.417969-3.582031 8-8 8zm0 0" fill="#003778"/><path d="m0 256.34375h464v128h-464zm0 0" fill="#acabb1"/><path d="m48 272.34375h96c8.835938 0 16 7.164062 16 16v64c0 8.839844-7.164062 16-16 16h-96c-8.835938 0-16-7.160156-16-16v-64c0-8.835938 7.164062-16 16-16zm0 0" fill="#97969b"/><path d="m40 408.34375h48l4.800781-24h-57.601562zm0 0" fill="#595765"/><path d="m376 408.34375h48l4.800781-24h-57.601562zm0 0" fill="#595765"/><path d="m48 288.34375h32v24h-32zm0 0" fill="#d80027"/><path d="m112 288.34375h32v24h-32zm0 0" fill="#aacefa"/><path d="m0 368.34375h464v16h-464zm0 0" fill="#6c6b6f"/><path d="m396.121094 85.03125c-2.121094 0-4.15625-.839844-5.65625-2.34375-25.011719-24.949219-65.5-24.949219-90.511719 0-3.140625 3.035156-8.128906 2.988281-11.214844-.097656-3.085937-3.085938-3.128906-8.074219-.097656-11.210938 31.261719-31.191406 81.871094-31.191406 113.136719 0 2.285156 2.285156 2.96875 5.726563 1.730468 8.714844-1.238281 2.988281-4.152343 4.9375-7.386718 4.9375zm0 0" fill="#003778"/><path d="m430.0625 51.089844c-2.121094 0-4.15625-.84375-5.65625-2.34375-43.773438-43.65625-114.621094-43.65625-158.398438 0-2.007812 2.078125-4.984374 2.914062-7.78125 2.179687-2.796874-.730469-4.980468-2.914062-5.710937-5.710937-.734375-2.796875.101563-5.773438 2.179687-7.78125 50.019532-49.910156 131.003907-49.910156 181.023438 0 2.289062 2.289062 2.972656 5.726562 1.734375 8.714844-1.238281 2.992187-4.152344 4.941406-7.390625 4.941406zm0 0" fill="#003778"/><path d="m424 360.34375h-112c-4.417969 0-8-3.582031-8-8s3.582031-8 8-8h112c4.417969 0 8 3.582031 8 8s-3.582031 8-8 8zm0 0" fill="#2b2b2d"/><path d="m424 328.34375h-112c-4.417969 0-8-3.582031-8-8s3.582031-8 8-8h112c4.417969 0 8 3.582031 8 8s-3.582031 8-8 8zm0 0" fill="#2b2b2d"/><path d="m360 112.34375c0 8.839844-7.164062 16-16 16s-16-7.160156-16-16c0-8.835938 7.164062-16 16-16s16 7.164062 16 16zm0 0" fill="#003778"/></svg>